<?xml version="1.0" encoding="UTF-8"?>
<svg width="373px" height="246px" viewBox="0 0 373 246" version="1.1" xmlns="http://www.w3.org/2000/svg" xmlns:xlink="http://www.w3.org/1999/xlink">
    <!-- Generator: Sketch 47.1 (45422) - http://www.bohemiancoding.com/sketch -->
    <title>disk</title>
    <desc>Created with Sketch.</desc>
    <defs></defs>
    <g id="Page-1" stroke="none" stroke-width="1" fill="none" fill-rule="evenodd">
        <g id="disk" transform="translate(-7.000000, 0.000000)" fill-rule="nonzero">
            <g id="Group" transform="translate(190.972224, 124.444444) scale(-1, 1) translate(-190.972224, -124.444444) translate(2.527780, 0.000000)">
                <path d="M308.044257,142.909552 C289.706163,181.189516 228.031278,190.185733 170.301298,163.005825 C112.564173,135.825916 80.6261589,82.7694891 98.9642532,44.4895245 C102.101597,37.9442455 95.262331,13.8457187 103.137849,14.3628241 C122.933844,15.666213 134.625629,10.3818211 149.14031,5.78454188 C176.833262,-2.99916573 211.115351,-2.49622763 242.510226,12.287319 C269.660039,25.0591132 289.820508,46.2391824 301.655226,69.0697385 C310.531263,86.190885 317.992281,106.180903 329.476816,117.543054 C335.27983,123.287882 311.295947,136.123429 308.044257,142.909552" id="Fill-1" fill="#000000"></path>
                <path d="M368.497079,215.991415 C343.191081,268.814083 -21.6912606,97.0571812 3.62188461,44.2345136 C20.0304056,9.99222116 125.999721,-2.26955131 226.759189,45.1624698 C327.518657,92.594491 388.350246,174.559233 368.497079,215.991415" id="Fill-4" fill="#000000"></path>
                <path d="M367.543013,217.982625 C351.198811,252.097412 247.96663,258.621441 147.21431,211.189419 C46.4548422,163.764482 -13.6763841,80.3405106 2.66781773,46.2257234 C19.0120196,12.1109365 115.219123,20.2287824 215.978591,67.6608035 C316.738058,115.092825 383.887215,183.867839 367.543013,217.982625" id="Fill-6" fill="#0077FF"></path>
                <path d="M258.450647,200.64472 C250.689473,216.844993 205.601774,211.723526 157.748351,189.197566 C109.89493,166.671605 77.399483,135.276934 85.1606564,119.069577 C92.9218297,102.869303 138.00953,107.997855 185.862952,130.523815 C233.716373,153.049775 266.211819,184.444447 258.450647,200.64472" id="Fill-9" fill="#FFFFFF"></path>
            </g>
        </g>
    </g>
</svg>