<?xml version="1.0" encoding="UTF-8"?>
<svg width="320px" height="378px" viewBox="0 0 320 378" version="1.1" xmlns="http://www.w3.org/2000/svg" xmlns:xlink="http://www.w3.org/1999/xlink">
    <!-- Generator: Sketch 47.1 (45422) - http://www.bohemiancoding.com/sketch -->
    <title>logo-H</title>
    <desc>Created with Sketch.</desc>
    <defs></defs>
    <g id="Page-1" stroke="none" stroke-width="1" fill="none" fill-rule="evenodd">
        <g id="logo-H" transform="translate(0.000000, -2.000000)" fill-rule="nonzero">
            <g id="Group" transform="translate(0.000000, 0.624729)">
                <circle id="Oval" fill="#FFCC00" cx="148.506972" cy="229.900217" r="148.506972"></circle>
                <path d="M228.472265,80.1239543 L228.472265,209.908894 C227.07417,210.249179 228.472265,209.908894 228.472265,209.908894 L228.472265,226.96631 C228.472265,242.475122 225.570498,254.174071 219.713277,266.32568 C207.581471,291.49478 179.55105,309.86551 148.506972,309.86551 C104.343361,309.86551 68.5416796,274.063829 68.5416796,229.900217 C68.5416796,185.736605 104.343361,149.934924 148.506972,149.934924 C172.459476,149.934924 193.952296,160.466081 208.607801,177.150763 C212.61257,181.710025 216.054986,187.579827 218.824486,195.600021 C217.835171,190.804399 217.048652,186.325303 217.048652,184.205764 L217.048652,55.6901147 L217.048652,1.42795166 L319.861171,41.4105981 L319.861171,115.664084 L228.472265,80.1239543 Z" id="Shape" fill="#FF3333"></path>
            </g>
        </g>
    </g>
</svg>